<?xml version="1.0" encoding="UTF-8" standalone="no"?><!DOCTYPE svg PUBLIC "-//W3C//DTD SVG 1.1//EN" "http://www.w3.org/Graphics/SVG/1.1/DTD/svg11.dtd"><svg width="100%" height="100%" viewBox="0 0 192 192" version="1.1" xmlns="http://www.w3.org/2000/svg" xmlns:xlink="http://www.w3.org/1999/xlink" xml:space="preserve" xmlns:serif="http://www.serif.com/" style="fill-rule:evenodd;clip-rule:evenodd;stroke-linejoin:round;stroke-miterlimit:2;"><rect id="logo-kannada-light-trans" x="0" y="0" width="192" height="192" style="fill:none;"/><g><path id="title-kannada" d="M119.74,163.333c0.147,-0.142 0.332,0.021 0.543,0.708c0.9,0.725 5.467,2.306 6.258,-2.74c0.556,-3.548 2.108,-6.425 5.446,-6.425c3.338,0 4.234,1.234 5.298,2.725c1.065,1.491 2.156,5.243 1.356,7.497c-0.474,1.334 -1.847,2.915 -4.685,2.915c-1.652,0 -3.763,-1.207 -3.169,-3.225c0.39,-1.324 2.228,-3.107 4.321,-2.256c0.999,0.407 -0.217,-5.282 -2.66,-5.282c-2.442,0 -2.465,3.762 -3.181,6.306c-0.213,0.757 -1.117,2.916 -4.082,3.502c-2.459,0.486 -4.135,-0.219 -4.82,-0.306c-0.446,1.747 -2.529,2.62 -6.249,2.62c-7.179,0 -8.695,-3.139 -4.545,-9.417c-5.566,0.067 -8.348,-0.531 -8.348,-1.794c0,-1.894 6.009,-0.744 8.694,-1.391c2.684,-0.648 1.979,-2.035 1.217,-2.232c-0.763,-0.197 -4.614,0.8 -6.493,-0.328c-1.879,-1.128 -0.69,-3.24 0.901,-3.716c1.591,-0.477 3.783,1.678 7.6,1.539c3.817,-0.14 5.778,-1.06 6.783,-1.902c1.005,-0.842 1.459,-3.863 5.088,-3.863c3.63,0 3.712,3.168 1.622,5.12c-2.09,1.952 -7.306,1.683 -10.122,2.426c-2.817,0.742 -1.663,2.764 0.059,2.764c1.721,0 6.905,-0.811 7.219,1.195c0.209,1.338 -1.934,1.951 -6.429,1.839c1.07,1.388 1.863,2.629 2.378,3.721Zm-65.406,0.726c2.51,-1.881 0.776,-6.682 1.89,-7.426c1.114,-0.743 2.634,-0.696 3.391,0c0.758,0.697 0.189,9.72 -4.319,11.115c-4.508,1.394 -9.727,0.289 -10.168,0.793c-1.097,1.256 -3.043,-1.732 -9.67,-1.732c-6.628,0 -9.088,3.552 -11.1,2.292c-3.856,-2.413 -0.27,-9.682 2.012,-9.682c2.282,0 2.844,1.274 3.344,3.805c1.906,-0.218 3.82,-0.379 5.744,-0.483c1.073,-0.058 3.023,0.192 5.852,0.75c-2.382,-5.601 -4.245,-8.527 -5.59,-8.779c-2.017,-0.378 -4.221,0.942 -5.392,0c-1.171,-0.942 -0.819,-6.953 1.126,-6.953c1.944,0 2.034,2.098 4.004,2.098c1.97,0 12.311,-3.686 14.135,-3.587c1.825,0.1 2.49,4.662 0.652,4.884c-1.839,0.222 -7.922,0.31 -10.403,2.259c1.801,2.956 5.451,7.611 6.32,11.171c0.863,0.872 5.662,1.355 8.172,-0.525Zm107.429,5.09c-1.718,0 -2.234,-1.58 -8.415,-1.58c-6.181,0 -6.852,3.611 -10.225,0.612c-3.373,-2.999 -0.711,-6.635 -0.711,-8.95c0,-2.315 -2.038,-5.679 -1.623,-7.751c0.621,-3.105 4.864,-3.402 6.418,-1.89c1.156,1.125 -1.347,3.839 -2.303,5.105c-0.956,1.267 1.952,2.081 1.952,4.075c0,1.994 -2.435,5.872 2.277,5.587c1.777,-0.233 1.708,-1.28 4.51,-1.28c2.802,0 3.666,0.969 6.305,1.565c-1.407,-6.229 -1.929,-9.371 -3.183,-9.64c-1.882,-0.403 -4.336,-0.274 -5.333,-1.737c-0.997,-1.463 -1.469,-3.675 0.345,-3.675c1.814,0 2.147,0.507 3.984,0.507c1.838,0 10.211,-3.932 11.912,-3.827c1.702,0.106 2.394,4.292 0.679,4.529c-1.715,0.237 -6.091,0.891 -8.404,2.97c1.679,3.154 3.892,8.676 4.379,11.343c0.487,2.667 -0.846,4.037 -2.564,4.037Zm-90.356,-0.094c-3.828,-1.874 -2.609,-9.318 -1.987,-12.931c0.621,-3.613 -7.287,-1.353 -7.699,-4.703c-0.413,-3.351 14.505,-5.153 20.348,-5.153c5.843,0 12.322,0.221 15.17,5.43c2.847,5.209 2.244,15.74 -2.555,16.004c-4.8,0.264 -5.534,-4.271 -3.415,-6.056c2.118,-1.785 3.04,0.373 4.288,-1.869c1.248,-2.242 0.869,-6.414 -4.288,-8.811c-5.157,-2.397 -14.671,-2.336 -17.644,2.384c-0.586,0.931 2.753,3.257 4.07,4.66c0.781,-0.468 2.36,-3.66 6.429,-3.66c4.068,0 5.145,13.103 1.192,14.433c-3.952,1.331 -6.983,-5.933 -7.327,-5.415c-0.344,0.517 -2.755,7.562 -6.582,5.687Zm8.494,-8.45c0.377,0.911 3.18,4.421 4.672,4.682c1.492,0.261 1.575,-6.27 0.403,-7.072c-1.173,-0.803 -5.451,1.48 -5.075,2.39Zm-3.667,0.037c0.234,-1.029 -3.389,-3.216 -3.775,-3.495c-0.386,-0.279 -1.488,8.406 0,8.142c1.487,-0.264 3.541,-3.617 3.775,-4.647Zm19.514,3.281c-0.195,-0.835 -2.066,-1.194 -2.55,-0.597c-0.484,0.597 0.295,1.969 1.03,1.969c0.735,0 1.715,-0.536 1.52,-1.372Zm17.192,-3.611c-1.465,0.065 -3.483,4.832 -2.255,6.068c1.229,1.237 5.999,0.811 6.397,-0.643c0.399,-1.453 -2.678,-5.49 -4.142,-5.425Zm22.343,5.229c0,-0.776 -0.909,-1.639 -2.076,-0.823c-1.167,0.817 -0.552,1.936 0.228,1.936c0.779,0 1.848,-0.337 1.848,-1.113Z" style="fill:#f7f7f7;"/><path d="M165.984,132.267l-139.968,0c-1.855,0 -3.36,-1.506 -3.36,-3.36c0,-1.854 1.505,-3.36 3.36,-3.36l139.968,0c1.855,0 3.36,1.506 3.36,3.36c0,1.854 -1.505,3.36 -3.36,3.36Zm-28.017,-17.047l-83.934,0c-1.854,0 -3.36,-1.506 -3.36,-3.36c0,-1.854 1.506,-3.36 3.36,-3.36l83.934,0c1.854,0 3.36,1.506 3.36,3.36c0,1.854 -1.506,3.36 -3.36,3.36Zm14.008,-17.047l-111.95,0c-1.855,0 -3.36,-1.505 -3.36,-3.36c0,-1.854 1.505,-3.36 3.36,-3.36l111.95,0c1.855,0 3.36,1.506 3.36,3.36c0,1.854 -1.505,3.36 -3.36,3.36Zm-8.684,-17.047l-96.262,0c-1.854,0 -3.36,-1.505 -3.36,-3.36c0,-1.854 1.506,-3.36 3.36,-3.36l96.262,0c1.854,0 3.36,1.506 3.36,3.36c0,1.855 -1.506,3.36 -3.36,3.36Zm-5.324,-17.047l-83.934,0c-1.854,0 -3.36,-1.505 -3.36,-3.36c0,-1.854 1.506,-3.36 3.36,-3.36l83.934,0c1.854,0 3.36,1.506 3.36,3.36c0,1.855 -1.506,3.36 -3.36,3.36Zm-7.005,-17.047l-69.924,0c-1.855,0 -3.36,-1.505 -3.36,-3.36c0,-1.854 1.505,-3.36 3.36,-3.36l69.924,0c1.855,0 3.36,1.506 3.36,3.36c0,1.855 -1.505,3.36 -3.36,3.36Zm-7.004,-17.047l-55.916,0c-1.854,0 -3.36,-1.505 -3.36,-3.36c0,-1.854 1.506,-3.36 3.36,-3.36l55.916,0c1.854,0 3.36,1.506 3.36,3.36c0,1.855 -1.506,3.36 -3.36,3.36Z" style="fill:#f7f7f7;"/></g></svg>