<?xml version="1.0" encoding="UTF-8" standalone="no"?><!DOCTYPE svg PUBLIC "-//W3C//DTD SVG 1.1//EN" "http://www.w3.org/Graphics/SVG/1.1/DTD/svg11.dtd"><svg width="100%" height="100%" viewBox="0 0 192 192" version="1.1" xmlns="http://www.w3.org/2000/svg" xmlns:xlink="http://www.w3.org/1999/xlink" xml:space="preserve" xmlns:serif="http://www.serif.com/" style="fill-rule:evenodd;clip-rule:evenodd;stroke-linejoin:round;stroke-miterlimit:2;"><rect id="logo-english-dark-trans" x="0" y="0" width="192" height="192" style="fill:none;"/><g><path id="title-english" d="M148.131,169.373c-0.804,0 -1.455,-0.599 -1.455,-1.337c0,-0.739 0.651,-1.338 1.455,-1.338c0.803,0 1.454,0.599 1.454,1.338c0,0.738 -0.651,1.337 -1.454,1.337Zm-89.298,-21.887c2.163,0.013 4.355,0.707 5.456,2.492c0.704,1.143 0.903,2.483 0.91,3.755l0,0.047l0,7.167c-0.031,1.097 0.114,2.29 0.907,3.025l0.113,0.155c0.041,0.183 -0.024,0.425 -0.026,0.429c-0.055,0.122 -0.117,0.242 -0.187,0.358c-0.303,0.503 -0.771,0.928 -1.354,1.164l-0.209,0.044c-0.573,-0.086 -0.674,-0.204 -0.914,-0.329c-0.748,-0.389 -1.341,-0.997 -1.694,-1.711c0,0 -0.389,0.309 -0.735,0.551c-1.607,1.121 -3.571,1.849 -5.748,1.61c-1.936,-0.212 -3.739,-1.291 -4.587,-2.889c-1.17,-2.205 -0.759,-5.109 1.116,-6.858c1.572,-1.467 4.062,-1.852 6.385,-1.805c1.035,0.021 2.072,0.076 3.098,0.21l0.017,0.002c0,-1.352 0.276,-2.917 -1.071,-3.786c-0.915,-0.591 -2.137,-0.468 -3.165,-0.332c-1.523,0.201 -2.992,0.666 -4.409,1.222l-0.164,0.065l-0.205,0.042c-0.216,-0.031 -0.45,-0.181 -0.455,-0.185c-0.695,-0.592 -1.088,-1.439 -1.093,-2.317l0.039,-0.184c0.149,-0.207 0.418,-0.32 0.673,-0.418c2.273,-0.873 4.676,-1.5 7.145,-1.523c0.053,-0.001 0.105,-0.001 0.157,-0.001Zm35.985,7.196c1.296,0.005 2.594,0.052 3.876,0.219l0.017,0.002c0,-1.352 0.276,-2.917 -1.071,-3.786c-0.915,-0.591 -2.136,-0.468 -3.164,-0.332c-1.524,0.201 -2.993,0.666 -4.41,1.222l-0.164,0.065l-0.205,0.042c-0.216,-0.031 -0.45,-0.181 -0.454,-0.185c-0.698,-0.594 -1.088,-1.436 -1.094,-2.317l0.039,-0.184c0.223,-0.31 0.736,-0.446 1.188,-0.61c2.277,-0.827 4.712,-1.413 7.167,-1.324c1.874,0.067 3.835,0.727 4.895,2.211c0.835,1.168 1.083,2.626 1.092,4.028l0,0.047l0,7.167c-0.031,1.095 0.105,2.283 0.906,3.025l0.113,0.155c0.041,0.183 -0.024,0.425 -0.026,0.429c-0.055,0.122 -0.117,0.242 -0.186,0.358c-0.303,0.503 -0.772,0.928 -1.355,1.164l-0.209,0.044c-0.573,-0.086 -0.673,-0.204 -0.914,-0.329c-0.748,-0.389 -1.34,-0.997 -1.694,-1.711c0,0 -0.591,0.469 -1.113,0.805c-2.122,1.364 -4.987,1.922 -7.429,0.801c-3.819,-1.752 -4.683,-7.728 -0.099,-10.109c1.282,-0.666 2.796,-0.901 4.294,-0.897Zm65.449,0c1.296,0.005 2.594,0.052 3.877,0.219l0.017,0.002c0,-0.403 0.001,-0.806 -0.001,-1.209c-0.002,-0.225 -0.005,-0.243 -0.012,-0.35c-0.057,-0.896 -0.331,-1.862 -1.235,-2.329c-1.139,-0.59 -2.561,-0.336 -3.776,-0.101c-1.247,0.24 -2.452,0.634 -3.622,1.093l-0.164,0.065l-0.204,0.042c-0.216,-0.031 -0.45,-0.181 -0.455,-0.185c-0.697,-0.593 -1.088,-1.436 -1.093,-2.317l0.039,-0.184c0.223,-0.31 0.735,-0.446 1.187,-0.61c2.278,-0.827 4.713,-1.413 7.167,-1.324c1.873,0.067 3.835,0.727 4.895,2.211c0.835,1.169 1.084,2.629 1.092,4.028l0,0.047l0,7.167c-0.031,1.095 0.106,2.283 0.907,3.025l0.112,0.155c0.042,0.183 -0.024,0.426 -0.025,0.429c-0.055,0.122 -0.117,0.242 -0.187,0.358c-0.303,0.503 -0.767,0.925 -1.355,1.164l-0.208,0.044c-0.574,-0.086 -0.674,-0.204 -0.915,-0.329c-0.747,-0.389 -1.34,-0.997 -1.694,-1.711c0,0 -0.556,0.443 -1.065,0.774c-2.131,1.385 -5.035,1.953 -7.477,0.832c-3.832,-1.758 -4.574,-7.785 -0.099,-10.109c1.282,-0.666 2.804,-0.901 4.294,-0.897Zm-23.675,-7.092c0.481,0.006 0.964,0.037 1.428,0.155l0.206,0.1l0.14,0.167l0.05,0.204l0,12.094c0.004,1.219 0.109,2.616 0.875,3.318c0,0 0.207,0.175 0.149,0.508c-0.005,0.024 -0.467,1.19 -1.584,1.608l-0.192,0.037c-0.569,-0.075 -0.666,-0.186 -0.905,-0.307c-0.792,-0.4 -1.391,-1.075 -1.735,-1.837c-0.5,0.384 -1.042,0.721 -1.613,1.013c-2.541,1.297 -5.921,1.946 -8.159,0.215c-1.439,-1.112 -1.934,-3.036 -1.943,-4.825c-0.006,-2.883 0.005,-5.766 -0.001,-8.649c-0.005,-0.915 -0.071,-1.843 -0.417,-2.699l-0.032,-0.186c0.063,-0.237 -0.047,-0.195 0.352,-0.478c1.049,-0.744 2.799,-0.788 3.506,0.131c0.329,0.427 0.415,0.966 0.42,1.471c0.011,3.204 -0.007,6.408 0,9.612c0.008,1.158 0.049,2.507 0.863,3.032c0.537,0.347 1.258,0.33 1.886,0.264c1.801,-0.191 3.487,-1.113 4.663,-2.303c0,0 0.002,-12.019 0.002,-12.019l0.046,-0.198l0.132,-0.164l0.194,-0.102c0.53,-0.159 1.108,-0.167 1.669,-0.162Zm14.379,15.187l0.213,0.038l0.179,0.11c0.408,0.569 0.482,1.384 0.383,2.104c-0.035,0.25 -0.198,0.466 -0.198,0.466c-0.242,0.16 -0.564,0.175 -0.864,0.205c-2.233,0.227 -4.77,0.568 -6.261,-0.843c-0.644,-0.61 -0.892,-1.495 -0.896,-2.345l0,-11.731l-2.065,0.027l-0.188,-0.027c-0.236,-0.119 -0.371,-0.437 -0.371,-0.439c-0.021,-0.102 -0.039,-0.205 -0.054,-0.308c-0.084,-0.575 -0.057,-1.16 0.061,-1.731c0,0 0.102,-0.366 0.552,-0.431l2.065,0.027c0,-1.329 -0.196,-2.687 0.079,-3.975c0.122,-0.574 0.542,-1.107 1.184,-1.264c0.234,-0.057 0.478,-0.076 0.721,-0.077l0.997,0l0.214,0.039l0.179,0.111c0.128,0.119 0.315,0.273 0.374,0.545l0,4.654l4.13,-0.06l0.188,0.027c0.055,0.027 0.11,0.055 0.166,0.083c0.128,0.133 0.205,0.353 0.206,0.356c0.136,0.671 0.131,1.365 -0.007,2.038c0,0 -0.101,0.365 -0.549,0.432l-4.134,-0.031c0,3.695 -0.044,7.39 0.001,11.084c0,0.025 0.001,0.049 0.002,0.073c0.002,0.045 0.006,0.09 0.011,0.134c0.004,0.031 0.009,0.061 0.014,0.091c0.064,0.344 0.418,0.616 0.866,0.618l2.802,0Zm-32.642,-15.05c0.448,0.004 0.896,0.026 1.344,0.053c0.005,0 0.259,0.016 0.262,0.016c0.076,0.014 0.149,0.039 0.223,0.059l0.176,0.136c0.182,0.217 0.197,0.21 0.325,0.457l0.004,0.201l-0.086,0.186c-1.631,2.129 -3.259,4.259 -4.893,6.386c-0.127,0.164 -0.327,0.397 -0.327,0.397c0.078,0.028 0.078,0.028 0.157,0.058c3.012,1.164 3.631,5.089 5.532,7.75c0.205,0.286 0.426,0.569 0.723,0.773l0.165,0.154l0.072,0.18l-0.009,0.191c-0.668,1.275 -3.167,1.589 -4.242,0.444c-0.383,-0.409 -0.646,-0.9 -0.885,-1.394c-0.877,-1.776 -1.487,-3.808 -2.761,-5.121c-0.891,-0.918 -2.55,-0.727 -3.843,-0.609c0,0 -0.004,7.111 -0.004,7.111l-0.032,0.165c-0.215,0.34 -0.359,0.309 -0.53,0.336c-0.951,0.148 -1.935,0.146 -2.883,-0.021l-0.175,-0.06c-0.248,-0.19 -0.245,-0.31 -0.267,-0.42l0,-24.998c0.028,-0.124 0.068,-0.249 0.16,-0.346c0.186,-0.194 0.202,-0.189 0.407,-0.311l0.209,-0.038c0.898,0 1.896,-0.152 2.56,0.447c0.476,0.428 0.55,1.114 0.551,1.757l0,13.272l1.085,-0.045c0.224,-0.001 0.428,-0.245 0.428,-0.245c1.331,-1.834 2.738,-3.623 4.107,-5.435c0.553,-0.756 1.319,-1.475 2.346,-1.487c0.034,0 0.068,0 0.101,0.001Zm-46.974,-8.265c0.894,0.01 1.76,0.458 1.95,1.363c0.058,0.276 0.075,0.558 0.075,0.841l0,7.792c0.038,-0.026 0.075,-0.05 0.113,-0.075c1.71,-1.115 3.746,-1.838 5.881,-1.828c1.679,0.008 3.393,0.606 4.335,2.046c0.737,1.128 0.997,2.476 1.005,3.788c0.005,2.856 -0.006,5.712 0,8.568c0.005,0.912 0.036,1.861 0.411,2.667l0.042,0.193l-0.046,0.191l-0.126,0.161c-1.04,0.876 -2.954,0.98 -3.708,0.011c-0.332,-0.426 -0.419,-0.966 -0.424,-1.47c-0.01,-3.186 0.007,-6.371 0,-9.557c-0.008,-1.146 -0.085,-2.483 -0.884,-2.993c-0.53,-0.339 -1.234,-0.327 -1.849,-0.267c-1.811,0.177 -3.516,1.084 -4.715,2.271l-0.035,0.034l0,11.957c-0.086,0.446 -0.262,0.424 -0.44,0.48c-0.017,0.005 -0.891,0.118 -1.607,0.112c-0.457,-0.004 -0.915,-0.032 -1.363,-0.112l-0.175,-0.06c-0.247,-0.191 -0.244,-0.31 -0.265,-0.42l0,-24.998c0.027,-0.123 0.066,-0.247 0.157,-0.343c0.185,-0.196 0.199,-0.189 0.405,-0.314l0.211,-0.038c0.351,0 0.701,-0.001 1.052,0Zm-29.135,8.025c1.616,0.019 3.201,0.636 4.11,1.952c0.775,1.122 1.048,2.472 1.055,3.8c0.006,2.901 -0.005,5.803 0.001,8.704c0.005,0.915 0.036,1.87 0.409,2.681l0.042,0.191l-0.046,0.19l-0.125,0.16c-1.028,0.874 -2.948,0.983 -3.696,0.012c-0.33,-0.428 -0.416,-0.967 -0.421,-1.474c-0.011,-3.22 0.007,-6.441 0,-9.662c-0.009,-1.214 -0.054,-2.653 -1.064,-3.109c-0.912,-0.413 -2.065,-0.089 -3.036,0.368c-0.906,0.427 -1.689,1.047 -2.325,1.766l0,12.088c-0.087,0.447 -0.263,0.424 -0.439,0.48c-0.018,0.006 -0.923,0.121 -1.658,0.112c-0.449,-0.005 -0.898,-0.033 -1.338,-0.112l-0.174,-0.06c-0.247,-0.191 -0.244,-0.31 -0.265,-0.42c0,-3.693 0.008,-7.385 -0.001,-11.078c-0.008,-1.237 -0.066,-2.7 -1.088,-3.152c-1.147,-0.506 -2.617,0.088 -3.719,0.794c-0.599,0.384 -1.12,0.858 -1.564,1.388l-0.016,12.048l-0.032,0.165c-0.213,0.338 -0.356,0.308 -0.526,0.336c-0.946,0.15 -1.93,0.149 -2.877,-0.021l-0.174,-0.06c-0.094,-0.073 -0.209,-0.132 -0.265,-0.42l0,-16.765c0.022,-0.112 0.052,-0.224 0.128,-0.315c0.177,-0.215 0.183,-0.212 0.413,-0.37l0.231,-0.046c1.056,0 2.318,-0.181 2.841,0.867c0.118,0.236 0.18,0.491 0.218,0.747c0,0 0.883,-0.696 1.807,-1.114c2.569,-1.16 6.11,-0.896 7.612,1.593c0.045,-0.034 0.091,-0.069 0.136,-0.103c1.607,-1.196 3.515,-2.139 5.715,-2.162c0.044,0 0.088,0 0.131,0.001Zm52.985,10.339c-1.846,0.019 -3.932,0.801 -3.718,3.098c0.089,0.966 0.716,2.004 1.957,2.144c1.932,0.219 3.891,-0.891 5.174,-2.329l0,-2.748c-1.129,-0.138 -2.277,-0.168 -3.413,-0.165Zm-37.331,0c-1.849,0.019 -3.931,0.801 -3.718,3.098c0.09,0.966 0.716,2.004 1.958,2.144c1.902,0.216 3.852,-0.864 5.154,-2.306l0.02,-2.771c-0.066,-0.008 -0.133,-0.016 -0.2,-0.023c-1.066,-0.117 -2.135,-0.145 -3.214,-0.142Zm103.265,0c-1.845,0.019 -3.931,0.8 -3.718,3.098c0.089,0.957 0.695,2.001 1.958,2.144c1.904,0.216 3.856,-0.869 5.154,-2.306l0.02,-2.771c-0.067,-0.008 -0.133,-0.016 -0.2,-0.023c-1.066,-0.117 -2.135,-0.145 -3.214,-0.142Zm-60.716,-12.308l-9.304,0c-0.133,-0.263 -0.198,-0.635 -0.196,-1.114c0.002,-0.48 0.068,-0.851 0.196,-1.115l9.304,0c0.129,0.264 0.194,0.635 0.196,1.115c0.002,0.479 -0.063,0.851 -0.196,1.114Zm34.907,0l-9.79,0c-0.132,-0.263 -0.198,-0.635 -0.195,-1.114c0.002,-0.48 0.067,-0.851 0.195,-1.115l9.79,0c0.128,0.264 0.193,0.635 0.196,1.115c0.002,0.479 -0.063,0.851 -0.196,1.114Z" style="fill:#da1f26;"/><path d="M165.984,132.267l-139.968,0c-1.855,0 -3.36,-1.506 -3.36,-3.36c0,-1.854 1.505,-3.36 3.36,-3.36l139.968,0c1.855,0 3.36,1.506 3.36,3.36c0,1.854 -1.505,3.36 -3.36,3.36Zm-28.017,-17.047l-83.934,0c-1.854,0 -3.36,-1.506 -3.36,-3.36c0,-1.854 1.506,-3.36 3.36,-3.36l83.934,0c1.854,0 3.36,1.506 3.36,3.36c0,1.854 -1.506,3.36 -3.36,3.36Zm14.008,-17.047l-111.95,0c-1.855,0 -3.36,-1.505 -3.36,-3.36c0,-1.854 1.505,-3.36 3.36,-3.36l111.95,0c1.855,0 3.36,1.506 3.36,3.36c0,1.854 -1.505,3.36 -3.36,3.36Zm-8.684,-17.047l-96.262,0c-1.854,0 -3.36,-1.505 -3.36,-3.36c0,-1.854 1.506,-3.36 3.36,-3.36l96.262,0c1.854,0 3.36,1.506 3.36,3.36c0,1.855 -1.506,3.36 -3.36,3.36Zm-5.324,-17.047l-83.934,0c-1.854,0 -3.36,-1.505 -3.36,-3.36c0,-1.854 1.506,-3.36 3.36,-3.36l83.934,0c1.854,0 3.36,1.506 3.36,3.36c0,1.855 -1.506,3.36 -3.36,3.36Zm-7.005,-17.047l-69.924,0c-1.855,0 -3.36,-1.505 -3.36,-3.36c0,-1.854 1.505,-3.36 3.36,-3.36l69.924,0c1.855,0 3.36,1.506 3.36,3.36c0,1.855 -1.505,3.36 -3.36,3.36Zm-7.004,-17.047l-55.916,0c-1.854,0 -3.36,-1.505 -3.36,-3.36c0,-1.854 1.506,-3.36 3.36,-3.36l55.916,0c1.854,0 3.36,1.506 3.36,3.36c0,1.855 -1.506,3.36 -3.36,3.36Z" style="fill:#da1f26;"/></g></svg>